{"asset":{"version":"2.0","generator":"THREE.GLTFExporter r175"},"scenes":[{"name":"AuxScene","nodes":[5]}],"scene":0,"nodes":[{"mesh":0},{"matrix":[0.07229391485395638,0,-0.07229391485395639,0,0,-0.10223903486351088,0,0,0.07229391485395639,0,0.07229391485395638,0,0,0,0,1],"children":[0]},{"children":[1]},{"matrix":[1,0,0,0,0,1,0,0,0,0,1,0,-35.476789817014684,31.04395559443224,35.187614174835076,1],"children":[2]},{"children":[3]},{"children":[4]}],"bufferViews":[{"buffer":0,"byteOffset":0,"byteLength":141120,"target":34962,"byteStride":12},{"buffer":0,"byteOffset":141120,"byteLength":94080,"target":34962,"byteStride":8},{"buffer":0,"byteOffset":235200,"byteLength":141120,"target":34962,"byteStride":12}],"buffers":[{"byteLength":376320,"uri":"data:application/octet-stream;base64,"}],"accessors":[{"bufferView":0,"componentType":5126,"count":11760,"max":[978.787353515625,609.5,135.10000610351562],"min":[-1.3332571983337402,-2.2435693740844727,-0.6000000238418579],"type":"VEC3"},{"bufferView":1,"componentType":5126,"count":11760,"max":[975.68359375,606.4000244140625],"min":[1.7765624523162842,-134.10000610351562],"type":"VEC2"},{"bufferView":2,"componentType":5126,"count":11760,"max":[1,1,1],"min":[-0.9999959468841553,-1,-1],"type":"VEC3"}],"materials":[{"pbrMetallicRoughness":{"baseColorFactor":[0.6375968739867731,0.6653872982754769,0.7083757798856457,1],"metallicFactor":0,"roughnessFactor":0.3},"doubleSided":true,"extensions":{"KHR_materials_transmission":{"transmissionFactor":1},"KHR_materials_volume":{"thicknessFactor":0,"attenuationColor":[1,1,1]}}}],"meshes":[{"primitives":[{"mode":4,"attributes":{"POSITION":0,"TEXCOORD_0":1,"NORMAL":2},"material":0}]}],"extensionsUsed":["KHR_materials_transmission","KHR_materials_volume"]}